<?xml version="1.0" encoding="UTF-8" standalone="no"?><!DOCTYPE svg PUBLIC "-//W3C//DTD SVG 1.1//EN" "http://www.w3.org/Graphics/SVG/1.1/DTD/svg11.dtd"><!-- Generated by graphviz version 2.40.1 (20161225.0304)
 --><!-- Title: Tree Pages: 1 --><svg xmlns="http://www.w3.org/2000/svg" xmlns:xlink="http://www.w3.org/1999/xlink" width="943pt" height="845pt" viewBox="0.00 0.00 942.54 844.80">
<g id="graph0" class="graph" transform="scale(1 1) rotate(0) translate(4 840.8)">
<title>Tree</title>
<polygon fill="#ffffff" stroke="transparent" points="-4,4 -4,-840.8 938.5356,-840.8 938.5356,4 -4,4"/>
<!-- 0 -->
<g id="node1" class="node">
<title>0</title>
<polygon fill="none" stroke="#000000" points="641.8042,-836.9003 508.7314,-836.9003 508.7314,-761.4997 641.8042,-761.4997 641.8042,-836.9003"/>
<text text-anchor="middle" x="575.2678" y="-820.2" font-family="Times,serif" font-size="14.00" fill="#000000">X[22] &lt;= 0.5</text>
<text text-anchor="middle" x="575.2678" y="-803.4" font-family="Times,serif" font-size="14.00" fill="#000000">gini = 0.499</text>
<text text-anchor="middle" x="575.2678" y="-786.6" font-family="Times,serif" font-size="14.00" fill="#000000">samples = 6499</text>
<text text-anchor="middle" x="575.2678" y="-769.8" font-family="Times,serif" font-size="14.00" fill="#000000">value = [3366, 3133]</text>
</g>
<!-- 1 -->
<g id="node2" class="node">
<title>1</title>
<polygon fill="none" stroke="#000000" points="524.3042,-725.7003 398.2314,-725.7003 398.2314,-650.2997 524.3042,-650.2997 524.3042,-725.7003"/>
<text text-anchor="middle" x="461.2678" y="-709" font-family="Times,serif" font-size="14.00" fill="#000000">X[42] &lt;= 0.5</text>
<text text-anchor="middle" x="461.2678" y="-692.2" font-family="Times,serif" font-size="14.00" fill="#000000">gini = 0.282</text>
<text text-anchor="middle" x="461.2678" y="-675.4" font-family="Times,serif" font-size="14.00" fill="#000000">samples = 3661</text>
<text text-anchor="middle" x="461.2678" y="-658.6" font-family="Times,serif" font-size="14.00" fill="#000000">value = [623, 3038]</text>
</g>
<!-- 0&#45;&gt;1 -->
<g id="edge1" class="edge">
<title>0-&gt;1</title>
<path fill="none" stroke="#000000" d="M536.6726,-761.5528C527.2015,-752.3142 516.9709,-742.3349 507.1926,-732.7968"/>
<polygon fill="#000000" stroke="#000000" points="509.4256,-730.0857 499.8233,-725.6085 504.5378,-735.0966 509.4256,-730.0857"/>
<text text-anchor="middle" x="500.1341" y="-746.4065" font-family="Times,serif" font-size="14.00" fill="#000000">True</text>
</g>
<!-- 16 -->
<g id="node17" class="node">
<title>16</title>
<polygon fill="none" stroke="#000000" points="705.8043,-725.7003 586.7313,-725.7003 586.7313,-650.2997 705.8043,-650.2997 705.8043,-725.7003"/>
<text text-anchor="middle" x="646.2678" y="-709" font-family="Times,serif" font-size="14.00" fill="#000000">X[80] &lt;= 0.5</text>
<text text-anchor="middle" x="646.2678" y="-692.2" font-family="Times,serif" font-size="14.00" fill="#000000">gini = 0.065</text>
<text text-anchor="middle" x="646.2678" y="-675.4" font-family="Times,serif" font-size="14.00" fill="#000000">samples = 2838</text>
<text text-anchor="middle" x="646.2678" y="-658.6" font-family="Times,serif" font-size="14.00" fill="#000000">value = [2743, 95]</text>
</g>
<!-- 0&#45;&gt;16 -->
<g id="edge16" class="edge">
<title>0-&gt;16</title>
<path fill="none" stroke="#000000" d="M599.3052,-761.5528C604.9147,-752.7671 610.952,-743.3115 616.768,-734.2025"/>
<polygon fill="#000000" stroke="#000000" points="619.8236,-735.9205 622.2552,-725.6085 613.9237,-732.1534 619.8236,-735.9205"/>
<text text-anchor="middle" x="627.6416" y="-745.8213" font-family="Times,serif" font-size="14.00" fill="#000000">False</text>
</g>
<!-- 2 -->
<g id="node3" class="node">
<title>2</title>
<polygon fill="none" stroke="#000000" points="342.3042,-614.5003 216.2314,-614.5003 216.2314,-539.0997 342.3042,-539.0997 342.3042,-614.5003"/>
<text text-anchor="middle" x="279.2678" y="-597.8" font-family="Times,serif" font-size="14.00" fill="#000000">X[50] &lt;= 0.5</text>
<text text-anchor="middle" x="279.2678" y="-581" font-family="Times,serif" font-size="14.00" fill="#000000">gini = 0.131</text>
<text text-anchor="middle" x="279.2678" y="-564.2" font-family="Times,serif" font-size="14.00" fill="#000000">samples = 3237</text>
<text text-anchor="middle" x="279.2678" y="-547.4" font-family="Times,serif" font-size="14.00" fill="#000000">value = [229, 3008]</text>
</g>
<!-- 1&#45;&gt;2 -->
<g id="edge2" class="edge">
<title>1-&gt;2</title>
<path fill="none" stroke="#000000" d="M399.6509,-650.3528C383.4926,-640.4802 365.9498,-629.7617 349.3831,-619.6397"/>
<polygon fill="#000000" stroke="#000000" points="351.1794,-616.6356 340.8212,-614.4085 347.5297,-622.6089 351.1794,-616.6356"/>
</g>
<!-- 13 -->
<g id="node14" class="node">
<title>13</title>
<polygon fill="none" stroke="#000000" points="517.3044,-614.5003 405.2312,-614.5003 405.2312,-539.0997 517.3044,-539.0997 517.3044,-614.5003"/>
<text text-anchor="middle" x="461.2678" y="-597.8" font-family="Times,serif" font-size="14.00" fill="#000000">X[57] &lt;= 0.5</text>
<text text-anchor="middle" x="461.2678" y="-581" font-family="Times,serif" font-size="14.00" fill="#000000">gini = 0.131</text>
<text text-anchor="middle" x="461.2678" y="-564.2" font-family="Times,serif" font-size="14.00" fill="#000000">samples = 424</text>
<text text-anchor="middle" x="461.2678" y="-547.4" font-family="Times,serif" font-size="14.00" fill="#000000">value = [394, 30]</text>
</g>
<!-- 1&#45;&gt;13 -->
<g id="edge13" class="edge">
<title>1-&gt;13</title>
<path fill="none" stroke="#000000" d="M461.2678,-650.3528C461.2678,-642.02 461.2678,-633.0845 461.2678,-624.4137"/>
<polygon fill="#000000" stroke="#000000" points="464.7679,-624.4084 461.2678,-614.4085 457.7679,-624.4085 464.7679,-624.4084"/>
</g>
<!-- 3 -->
<g id="node4" class="node">
<title>3</title>
<polygon fill="none" stroke="#000000" points="207.8043,-503.3003 88.7313,-503.3003 88.7313,-427.8997 207.8043,-427.8997 207.8043,-503.3003"/>
<text text-anchor="middle" x="148.2678" y="-486.6" font-family="Times,serif" font-size="14.00" fill="#000000">X[81] &lt;= 0.5</text>
<text text-anchor="middle" x="148.2678" y="-469.8" font-family="Times,serif" font-size="14.00" fill="#000000">gini = 0.046</text>
<text text-anchor="middle" x="148.2678" y="-453" font-family="Times,serif" font-size="14.00" fill="#000000">samples = 3080</text>
<text text-anchor="middle" x="148.2678" y="-436.2" font-family="Times,serif" font-size="14.00" fill="#000000">value = [72, 3008]</text>
</g>
<!-- 2&#45;&gt;3 -->
<g id="edge3" class="edge">
<title>2-&gt;3</title>
<path fill="none" stroke="#000000" d="M234.9172,-539.1528C223.8203,-529.7331 211.8161,-519.5433 200.3806,-509.8362"/>
<polygon fill="#000000" stroke="#000000" points="202.4615,-507.0116 192.5728,-503.2085 197.9315,-512.3482 202.4615,-507.0116"/>
</g>
<!-- 12 -->
<g id="node13" class="node">
<title>12</title>
<polygon fill="none" stroke="#000000" points="331.8044,-495.0014 226.7312,-495.0014 226.7312,-436.1986 331.8044,-436.1986 331.8044,-495.0014"/>
<text text-anchor="middle" x="279.2678" y="-478.2" font-family="Times,serif" font-size="14.00" fill="#000000">gini = 0.0</text>
<text text-anchor="middle" x="279.2678" y="-461.4" font-family="Times,serif" font-size="14.00" fill="#000000">samples = 157</text>
<text text-anchor="middle" x="279.2678" y="-444.6" font-family="Times,serif" font-size="14.00" fill="#000000">value = [157, 0]</text>
</g>
<!-- 2&#45;&gt;12 -->
<g id="edge12" class="edge">
<title>2-&gt;12</title>
<path fill="none" stroke="#000000" d="M279.2678,-539.1528C279.2678,-528.2662 279.2678,-516.351 279.2678,-505.3411"/>
<polygon fill="#000000" stroke="#000000" points="282.7679,-505.1258 279.2678,-495.1258 275.7679,-505.1259 282.7679,-505.1258"/>
</g>
<!-- 4 -->
<g id="node5" class="node">
<title>4</title>
<polygon fill="none" stroke="#000000" points="181.8043,-392.1003 62.7313,-392.1003 62.7313,-316.6997 181.8043,-316.6997 181.8043,-392.1003"/>
<text text-anchor="middle" x="122.2678" y="-375.4" font-family="Times,serif" font-size="14.00" fill="#000000">X[20] &lt;= 0.5</text>
<text text-anchor="middle" x="122.2678" y="-358.6" font-family="Times,serif" font-size="14.00" fill="#000000">gini = 0.024</text>
<text text-anchor="middle" x="122.2678" y="-341.8" font-family="Times,serif" font-size="14.00" fill="#000000">samples = 3045</text>
<text text-anchor="middle" x="122.2678" y="-325" font-family="Times,serif" font-size="14.00" fill="#000000">value = [37, 3008]</text>
</g>
<!-- 3&#45;&gt;4 -->
<g id="edge4" class="edge">
<title>3-&gt;4</title>
<path fill="none" stroke="#000000" d="M139.4654,-427.9528C137.5171,-419.62 135.4279,-410.6845 133.4005,-402.0137"/>
<polygon fill="#000000" stroke="#000000" points="136.746,-400.949 131.0611,-392.0085 129.9299,-402.5427 136.746,-400.949"/>
</g>
<!-- 11 -->
<g id="node12" class="node">
<title>11</title>
<polygon fill="none" stroke="#000000" points="298.3045,-383.8014 200.2311,-383.8014 200.2311,-324.9986 298.3045,-324.9986 298.3045,-383.8014"/>
<text text-anchor="middle" x="249.2678" y="-367" font-family="Times,serif" font-size="14.00" fill="#000000">gini = 0.0</text>
<text text-anchor="middle" x="249.2678" y="-350.2" font-family="Times,serif" font-size="14.00" fill="#000000">samples = 35</text>
<text text-anchor="middle" x="249.2678" y="-333.4" font-family="Times,serif" font-size="14.00" fill="#000000">value = [35, 0]</text>
</g>
<!-- 3&#45;&gt;11 -->
<g id="edge11" class="edge">
<title>3-&gt;11</title>
<path fill="none" stroke="#000000" d="M182.4618,-427.9528C193.1653,-416.1683 204.9635,-403.1786 215.6284,-391.4366"/>
<polygon fill="#000000" stroke="#000000" points="218.3177,-393.6815 222.4503,-383.9258 213.136,-388.9751 218.3177,-393.6815"/>
</g>
<!-- 5 -->
<g id="node6" class="node">
<title>5</title>
<polygon fill="none" stroke="#000000" points="128.8043,-280.9003 9.7313,-280.9003 9.7313,-205.4997 128.8043,-205.4997 128.8043,-280.9003"/>
<text text-anchor="middle" x="69.2678" y="-264.2" font-family="Times,serif" font-size="14.00" fill="#000000">X[27] &lt;= 0.5</text>
<text text-anchor="middle" x="69.2678" y="-247.4" font-family="Times,serif" font-size="14.00" fill="#000000">gini = 0.012</text>
<text text-anchor="middle" x="69.2678" y="-230.6" font-family="Times,serif" font-size="14.00" fill="#000000">samples = 3027</text>
<text text-anchor="middle" x="69.2678" y="-213.8" font-family="Times,serif" font-size="14.00" fill="#000000">value = [19, 3008]</text>
</g>
<!-- 4&#45;&gt;5 -->
<g id="edge5" class="edge">
<title>4-&gt;5</title>
<path fill="none" stroke="#000000" d="M104.3244,-316.7528C100.2234,-308.1483 95.816,-298.9011 91.5575,-289.9664"/>
<polygon fill="#000000" stroke="#000000" points="94.6547,-288.3297 87.1927,-280.8085 88.3358,-291.3415 94.6547,-288.3297"/>
</g>
<!-- 10 -->
<g id="node11" class="node">
<title>10</title>
<polygon fill="none" stroke="#000000" points="245.3045,-272.6014 147.2311,-272.6014 147.2311,-213.7986 245.3045,-213.7986 245.3045,-272.6014"/>
<text text-anchor="middle" x="196.2678" y="-255.8" font-family="Times,serif" font-size="14.00" fill="#000000">gini = 0.0</text>
<text text-anchor="middle" x="196.2678" y="-239" font-family="Times,serif" font-size="14.00" fill="#000000">samples = 18</text>
<text text-anchor="middle" x="196.2678" y="-222.2" font-family="Times,serif" font-size="14.00" fill="#000000">value = [18, 0]</text>
</g>
<!-- 4&#45;&gt;10 -->
<g id="edge10" class="edge">
<title>4-&gt;10</title>
<path fill="none" stroke="#000000" d="M147.3208,-316.7528C154.9389,-305.305 163.3139,-292.7199 170.9494,-281.246"/>
<polygon fill="#000000" stroke="#000000" points="173.993,-282.99 176.6193,-272.7258 168.1654,-279.1119 173.993,-282.99"/>
</g>
<!-- 6 -->
<g id="node7" class="node">
<title>6</title>
<polygon fill="none" stroke="#000000" points="112.3044,-161.4014 .2312,-161.4014 .2312,-102.5986 112.3044,-102.5986 112.3044,-161.4014"/>
<text text-anchor="middle" x="56.2678" y="-144.6" font-family="Times,serif" font-size="14.00" fill="#000000">gini = 0.0</text>
<text text-anchor="middle" x="56.2678" y="-127.8" font-family="Times,serif" font-size="14.00" fill="#000000">samples = 2931</text>
<text text-anchor="middle" x="56.2678" y="-111" font-family="Times,serif" font-size="14.00" fill="#000000">value = [0, 2931]</text>
</g>
<!-- 5&#45;&gt;6 -->
<g id="edge6" class="edge">
<title>5-&gt;6</title>
<path fill="none" stroke="#000000" d="M64.8666,-205.5528C63.5939,-194.6662 62.2009,-182.751 60.9138,-171.7411"/>
<polygon fill="#000000" stroke="#000000" points="64.3571,-171.0518 59.7196,-161.5258 57.4045,-171.8646 64.3571,-171.0518"/>
</g>
<!-- 7 -->
<g id="node8" class="node">
<title>7</title>
<polygon fill="none" stroke="#000000" points="235.8044,-169.7003 130.7312,-169.7003 130.7312,-94.2997 235.8044,-94.2997 235.8044,-169.7003"/>
<text text-anchor="middle" x="183.2678" y="-153" font-family="Times,serif" font-size="14.00" fill="#000000">X[18] &lt;= 0.5</text>
<text text-anchor="middle" x="183.2678" y="-136.2" font-family="Times,serif" font-size="14.00" fill="#000000">gini = 0.317</text>
<text text-anchor="middle" x="183.2678" y="-119.4" font-family="Times,serif" font-size="14.00" fill="#000000">samples = 96</text>
<text text-anchor="middle" x="183.2678" y="-102.6" font-family="Times,serif" font-size="14.00" fill="#000000">value = [19, 77]</text>
</g>
<!-- 5&#45;&gt;7 -->
<g id="edge7" class="edge">
<title>5-&gt;7</title>
<path fill="none" stroke="#000000" d="M107.863,-205.5528C117.3341,-196.3142 127.5647,-186.3349 137.343,-176.7968"/>
<polygon fill="#000000" stroke="#000000" points="139.9978,-179.0966 144.7123,-169.6085 135.11,-174.0857 139.9978,-179.0966"/>
</g>
<!-- 8 -->
<g id="node9" class="node">
<title>8</title>
<polygon fill="none" stroke="#000000" points="229.3045,-58.6014 131.2311,-58.6014 131.2311,.2014 229.3045,.2014 229.3045,-58.6014"/>
<text text-anchor="middle" x="180.2678" y="-41.8" font-family="Times,serif" font-size="14.00" fill="#000000">gini = 0.0</text>
<text text-anchor="middle" x="180.2678" y="-25" font-family="Times,serif" font-size="14.00" fill="#000000">samples = 19</text>
<text text-anchor="middle" x="180.2678" y="-8.2" font-family="Times,serif" font-size="14.00" fill="#000000">value = [19, 0]</text>
</g>
<!-- 7&#45;&gt;8 -->
<g id="edge8" class="edge">
<title>7-&gt;8</title>
<path fill="none" stroke="#000000" d="M182.1677,-94.3048C181.9228,-85.9126 181.6626,-76.9946 181.4158,-68.5382"/>
<polygon fill="#000000" stroke="#000000" points="184.9137,-68.4122 181.1234,-58.5186 177.9167,-68.6165 184.9137,-68.4122"/>
</g>
<!-- 9 -->
<g id="node10" class="node">
<title>9</title>
<polygon fill="none" stroke="#000000" points="346.3045,-58.6014 248.2311,-58.6014 248.2311,.2014 346.3045,.2014 346.3045,-58.6014"/>
<text text-anchor="middle" x="297.2678" y="-41.8" font-family="Times,serif" font-size="14.00" fill="#000000">gini = 0.0</text>
<text text-anchor="middle" x="297.2678" y="-25" font-family="Times,serif" font-size="14.00" fill="#000000">samples = 77</text>
<text text-anchor="middle" x="297.2678" y="-8.2" font-family="Times,serif" font-size="14.00" fill="#000000">value = [0, 77]</text>
</g>
<!-- 7&#45;&gt;9 -->
<g id="edge9" class="edge">
<title>7-&gt;9</title>
<path fill="none" stroke="#000000" d="M225.0699,-94.3048C235.6036,-84.806 246.8844,-74.6335 257.3243,-65.2192"/>
<polygon fill="#000000" stroke="#000000" points="259.6723,-67.8148 264.7549,-58.5186 254.9845,-62.6162 259.6723,-67.8148"/>
</g>
<!-- 14 -->
<g id="node15" class="node">
<title>14</title>
<polygon fill="none" stroke="#000000" points="448.3045,-495.0014 350.2311,-495.0014 350.2311,-436.1986 448.3045,-436.1986 448.3045,-495.0014"/>
<text text-anchor="middle" x="399.2678" y="-478.2" font-family="Times,serif" font-size="14.00" fill="#000000">gini = 0.0</text>
<text text-anchor="middle" x="399.2678" y="-461.4" font-family="Times,serif" font-size="14.00" fill="#000000">samples = 30</text>
<text text-anchor="middle" x="399.2678" y="-444.6" font-family="Times,serif" font-size="14.00" fill="#000000">value = [0, 30]</text>
</g>
<!-- 13&#45;&gt;14 -->
<g id="edge14" class="edge">
<title>13-&gt;14</title>
<path fill="none" stroke="#000000" d="M440.2774,-539.1528C433.9573,-527.8173 427.0153,-515.3665 420.6689,-503.9838"/>
<polygon fill="#000000" stroke="#000000" points="423.6568,-502.1556 415.73,-495.1258 417.5429,-505.5644 423.6568,-502.1556"/>
</g>
<!-- 15 -->
<g id="node16" class="node">
<title>15</title>
<polygon fill="none" stroke="#000000" points="571.8044,-495.0014 466.7312,-495.0014 466.7312,-436.1986 571.8044,-436.1986 571.8044,-495.0014"/>
<text text-anchor="middle" x="519.2678" y="-478.2" font-family="Times,serif" font-size="14.00" fill="#000000">gini = 0.0</text>
<text text-anchor="middle" x="519.2678" y="-461.4" font-family="Times,serif" font-size="14.00" fill="#000000">samples = 394</text>
<text text-anchor="middle" x="519.2678" y="-444.6" font-family="Times,serif" font-size="14.00" fill="#000000">value = [394, 0]</text>
</g>
<!-- 13&#45;&gt;15 -->
<g id="edge15" class="edge">
<title>13-&gt;15</title>
<path fill="none" stroke="#000000" d="M480.904,-539.1528C486.7578,-527.9295 493.1819,-515.613 499.0709,-504.3222"/>
<polygon fill="#000000" stroke="#000000" points="502.3463,-505.6109 503.8676,-495.1258 496.1398,-502.3736 502.3463,-505.6109"/>
</g>
<!-- 17 -->
<g id="node18" class="node">
<title>17</title>
<polygon fill="none" stroke="#000000" points="705.8043,-614.5003 586.7313,-614.5003 586.7313,-539.0997 705.8043,-539.0997 705.8043,-614.5003"/>
<text text-anchor="middle" x="646.2678" y="-597.8" font-family="Times,serif" font-size="14.00" fill="#000000">X[50] &lt;= 0.5</text>
<text text-anchor="middle" x="646.2678" y="-581" font-family="Times,serif" font-size="14.00" fill="#000000">gini = 0.026</text>
<text text-anchor="middle" x="646.2678" y="-564.2" font-family="Times,serif" font-size="14.00" fill="#000000">samples = 2779</text>
<text text-anchor="middle" x="646.2678" y="-547.4" font-family="Times,serif" font-size="14.00" fill="#000000">value = [2743, 36]</text>
</g>
<!-- 16&#45;&gt;17 -->
<g id="edge17" class="edge">
<title>16-&gt;17</title>
<path fill="none" stroke="#000000" d="M646.2678,-650.3528C646.2678,-642.02 646.2678,-633.0845 646.2678,-624.4137"/>
<polygon fill="#000000" stroke="#000000" points="649.7679,-624.4084 646.2678,-614.4085 642.7679,-624.4085 649.7679,-624.4084"/>
</g>
<!-- 30 -->
<g id="node31" class="node">
<title>30</title>
<polygon fill="none" stroke="#000000" points="822.3045,-606.2014 724.2311,-606.2014 724.2311,-547.3986 822.3045,-547.3986 822.3045,-606.2014"/>
<text text-anchor="middle" x="773.2678" y="-589.4" font-family="Times,serif" font-size="14.00" fill="#000000">gini = 0.0</text>
<text text-anchor="middle" x="773.2678" y="-572.6" font-family="Times,serif" font-size="14.00" fill="#000000">samples = 59</text>
<text text-anchor="middle" x="773.2678" y="-555.8" font-family="Times,serif" font-size="14.00" fill="#000000">value = [0, 59]</text>
</g>
<!-- 16&#45;&gt;30 -->
<g id="edge30" class="edge">
<title>16-&gt;30</title>
<path fill="none" stroke="#000000" d="M689.2642,-650.3528C702.9794,-638.3439 718.1241,-625.0833 731.7335,-613.167"/>
<polygon fill="#000000" stroke="#000000" points="734.3288,-615.5467 739.5467,-606.3258 729.7175,-610.2802 734.3288,-615.5467"/>
</g>
<!-- 18 -->
<g id="node19" class="node">
<title>18</title>
<polygon fill="none" stroke="#000000" points="702.3044,-503.3003 590.2312,-503.3003 590.2312,-427.8997 702.3044,-427.8997 702.3044,-503.3003"/>
<text text-anchor="middle" x="646.2678" y="-486.6" font-family="Times,serif" font-size="14.00" fill="#000000">X[5] &lt;= 0.5</text>
<text text-anchor="middle" x="646.2678" y="-469.8" font-family="Times,serif" font-size="14.00" fill="#000000">gini = 0.005</text>
<text text-anchor="middle" x="646.2678" y="-453" font-family="Times,serif" font-size="14.00" fill="#000000">samples = 2737</text>
<text text-anchor="middle" x="646.2678" y="-436.2" font-family="Times,serif" font-size="14.00" fill="#000000">value = [2730, 7]</text>
</g>
<!-- 17&#45;&gt;18 -->
<g id="edge18" class="edge">
<title>17-&gt;18</title>
<path fill="none" stroke="#000000" d="M646.2678,-539.1528C646.2678,-530.82 646.2678,-521.8845 646.2678,-513.2137"/>
<polygon fill="#000000" stroke="#000000" points="649.7679,-513.2084 646.2678,-503.2085 642.7679,-513.2085 649.7679,-513.2084"/>
</g>
<!-- 27 -->
<g id="node28" class="node">
<title>27</title>
<polygon fill="none" stroke="#000000" points="825.8044,-503.3003 720.7312,-503.3003 720.7312,-427.8997 825.8044,-427.8997 825.8044,-503.3003"/>
<text text-anchor="middle" x="773.2678" y="-486.6" font-family="Times,serif" font-size="14.00" fill="#000000">X[41] &lt;= 0.5</text>
<text text-anchor="middle" x="773.2678" y="-469.8" font-family="Times,serif" font-size="14.00" fill="#000000">gini = 0.427</text>
<text text-anchor="middle" x="773.2678" y="-453" font-family="Times,serif" font-size="14.00" fill="#000000">samples = 42</text>
<text text-anchor="middle" x="773.2678" y="-436.2" font-family="Times,serif" font-size="14.00" fill="#000000">value = [13, 29]</text>
</g>
<!-- 17&#45;&gt;27 -->
<g id="edge27" class="edge">
<title>17-&gt;27</title>
<path fill="none" stroke="#000000" d="M689.2642,-539.1528C700.0223,-529.7331 711.6599,-519.5433 722.7462,-509.8362"/>
<polygon fill="#000000" stroke="#000000" points="725.0977,-512.4293 730.3157,-503.2085 720.4864,-507.1628 725.0977,-512.4293"/>
</g>
<!-- 19 -->
<g id="node20" class="node">
<title>19</title>
<polygon fill="none" stroke="#000000" points="584.3044,-392.1003 472.2312,-392.1003 472.2312,-316.6997 584.3044,-316.6997 584.3044,-392.1003"/>
<text text-anchor="middle" x="528.2678" y="-375.4" font-family="Times,serif" font-size="14.00" fill="#000000">X[0] &lt;= 0.5</text>
<text text-anchor="middle" x="528.2678" y="-358.6" font-family="Times,serif" font-size="14.00" fill="#000000">gini = 0.003</text>
<text text-anchor="middle" x="528.2678" y="-341.8" font-family="Times,serif" font-size="14.00" fill="#000000">samples = 2734</text>
<text text-anchor="middle" x="528.2678" y="-325" font-family="Times,serif" font-size="14.00" fill="#000000">value = [2730, 4]</text>
</g>
<!-- 18&#45;&gt;19 -->
<g id="edge19" class="edge">
<title>18-&gt;19</title>
<path fill="none" stroke="#000000" d="M606.3184,-427.9528C596.4188,-418.6237 585.7177,-408.5392 575.5064,-398.9164"/>
<polygon fill="#000000" stroke="#000000" points="577.8542,-396.3196 568.1761,-392.0085 573.0534,-401.414 577.8542,-396.3196"/>
</g>
<!-- 26 -->
<g id="node27" class="node">
<title>26</title>
<polygon fill="none" stroke="#000000" points="693.8046,-383.8014 602.731,-383.8014 602.731,-324.9986 693.8046,-324.9986 693.8046,-383.8014"/>
<text text-anchor="middle" x="648.2678" y="-367" font-family="Times,serif" font-size="14.00" fill="#000000">gini = 0.0</text>
<text text-anchor="middle" x="648.2678" y="-350.2" font-family="Times,serif" font-size="14.00" fill="#000000">samples = 3</text>
<text text-anchor="middle" x="648.2678" y="-333.4" font-family="Times,serif" font-size="14.00" fill="#000000">value = [0, 3]</text>
</g>
<!-- 18&#45;&gt;26 -->
<g id="edge26" class="edge">
<title>18-&gt;26</title>
<path fill="none" stroke="#000000" d="M646.9449,-427.9528C647.1407,-417.0662 647.355,-405.151 647.553,-394.1411"/>
<polygon fill="#000000" stroke="#000000" points="651.0563,-393.9872 647.7368,-383.9258 644.0574,-393.8612 651.0563,-393.9872"/>
</g>
<!-- 20 -->
<g id="node21" class="node">
<title>20</title>
<polygon fill="none" stroke="#000000" points="471.3044,-280.9003 359.2312,-280.9003 359.2312,-205.4997 471.3044,-205.4997 471.3044,-280.9003"/>
<text text-anchor="middle" x="415.2678" y="-264.2" font-family="Times,serif" font-size="14.00" fill="#000000">X[28] &lt;= 0.5</text>
<text text-anchor="middle" x="415.2678" y="-247.4" font-family="Times,serif" font-size="14.00" fill="#000000">gini = 0.002</text>
<text text-anchor="middle" x="415.2678" y="-230.6" font-family="Times,serif" font-size="14.00" fill="#000000">samples = 2733</text>
<text text-anchor="middle" x="415.2678" y="-213.8" font-family="Times,serif" font-size="14.00" fill="#000000">value = [2730, 3]</text>
</g>
<!-- 19&#45;&gt;20 -->
<g id="edge20" class="edge">
<title>19-&gt;20</title>
<path fill="none" stroke="#000000" d="M490.0112,-316.7528C480.6231,-307.5142 470.4823,-297.5349 460.7897,-287.9968"/>
<polygon fill="#000000" stroke="#000000" points="463.0676,-285.3279 453.485,-280.8085 458.1577,-290.3173 463.0676,-285.3279"/>
</g>
<!-- 25 -->
<g id="node26" class="node">
<title>25</title>
<polygon fill="none" stroke="#000000" points="580.8046,-272.6014 489.731,-272.6014 489.731,-213.7986 580.8046,-213.7986 580.8046,-272.6014"/>
<text text-anchor="middle" x="535.2678" y="-255.8" font-family="Times,serif" font-size="14.00" fill="#000000">gini = 0.0</text>
<text text-anchor="middle" x="535.2678" y="-239" font-family="Times,serif" font-size="14.00" fill="#000000">samples = 1</text>
<text text-anchor="middle" x="535.2678" y="-222.2" font-family="Times,serif" font-size="14.00" fill="#000000">value = [0, 1]</text>
</g>
<!-- 19&#45;&gt;25 -->
<g id="edge25" class="edge">
<title>19-&gt;25</title>
<path fill="none" stroke="#000000" d="M530.6377,-316.7528C531.323,-305.8662 532.073,-293.951 532.7661,-282.9411"/>
<polygon fill="#000000" stroke="#000000" points="536.2739,-282.926 533.4092,-272.7258 529.2877,-282.4862 536.2739,-282.926"/>
</g>
<!-- 21 -->
<g id="node22" class="node">
<title>21</title>
<polygon fill="none" stroke="#000000" points="419.3044,-161.4014 307.2312,-161.4014 307.2312,-102.5986 419.3044,-102.5986 419.3044,-161.4014"/>
<text text-anchor="middle" x="363.2678" y="-144.6" font-family="Times,serif" font-size="14.00" fill="#000000">gini = 0.0</text>
<text text-anchor="middle" x="363.2678" y="-127.8" font-family="Times,serif" font-size="14.00" fill="#000000">samples = 2582</text>
<text text-anchor="middle" x="363.2678" y="-111" font-family="Times,serif" font-size="14.00" fill="#000000">value = [2582, 0]</text>
</g>
<!-- 20&#45;&gt;21 -->
<g id="edge21" class="edge">
<title>20-&gt;21</title>
<path fill="none" stroke="#000000" d="M397.663,-205.5528C392.4147,-194.3295 386.6552,-182.013 381.3753,-170.7222"/>
<polygon fill="#000000" stroke="#000000" points="384.4814,-169.1017 377.0748,-161.5258 378.1404,-172.067 384.4814,-169.1017"/>
</g>
<!-- 22 -->
<g id="node23" class="node">
<title>22</title>
<polygon fill="none" stroke="#000000" points="542.8044,-169.7003 437.7312,-169.7003 437.7312,-94.2997 542.8044,-94.2997 542.8044,-169.7003"/>
<text text-anchor="middle" x="490.2678" y="-153" font-family="Times,serif" font-size="14.00" fill="#000000">X[17] &lt;= 0.5</text>
<text text-anchor="middle" x="490.2678" y="-136.2" font-family="Times,serif" font-size="14.00" fill="#000000">gini = 0.039</text>
<text text-anchor="middle" x="490.2678" y="-119.4" font-family="Times,serif" font-size="14.00" fill="#000000">samples = 151</text>
<text text-anchor="middle" x="490.2678" y="-102.6" font-family="Times,serif" font-size="14.00" fill="#000000">value = [148, 3]</text>
</g>
<!-- 20&#45;&gt;22 -->
<g id="edge22" class="edge">
<title>20-&gt;22</title>
<path fill="none" stroke="#000000" d="M440.6594,-205.5528C446.646,-196.6765 453.0939,-187.1165 459.296,-177.9209"/>
<polygon fill="#000000" stroke="#000000" points="462.2124,-179.8561 464.9024,-169.6085 456.409,-175.942 462.2124,-179.8561"/>
</g>
<!-- 23 -->
<g id="node24" class="node">
<title>23</title>
<polygon fill="none" stroke="#000000" points="479.8044,-58.6014 374.7312,-58.6014 374.7312,.2014 479.8044,.2014 479.8044,-58.6014"/>
<text text-anchor="middle" x="427.2678" y="-41.8" font-family="Times,serif" font-size="14.00" fill="#000000">gini = 0.0</text>
<text text-anchor="middle" x="427.2678" y="-25" font-family="Times,serif" font-size="14.00" fill="#000000">samples = 148</text>
<text text-anchor="middle" x="427.2678" y="-8.2" font-family="Times,serif" font-size="14.00" fill="#000000">value = [148, 0]</text>
</g>
<!-- 22&#45;&gt;23 -->
<g id="edge23" class="edge">
<title>22-&gt;23</title>
<path fill="none" stroke="#000000" d="M467.1667,-94.3048C461.741,-85.4515 455.9567,-76.013 450.5243,-67.1487"/>
<polygon fill="#000000" stroke="#000000" points="453.4449,-65.216 445.2354,-58.5186 447.4765,-68.8737 453.4449,-65.216"/>
</g>
<!-- 24 -->
<g id="node25" class="node">
<title>24</title>
<polygon fill="none" stroke="#000000" points="589.8046,-58.6014 498.731,-58.6014 498.731,.2014 589.8046,.2014 589.8046,-58.6014"/>
<text text-anchor="middle" x="544.2678" y="-41.8" font-family="Times,serif" font-size="14.00" fill="#000000">gini = 0.0</text>
<text text-anchor="middle" x="544.2678" y="-25" font-family="Times,serif" font-size="14.00" fill="#000000">samples = 3</text>
<text text-anchor="middle" x="544.2678" y="-8.2" font-family="Times,serif" font-size="14.00" fill="#000000">value = [0, 3]</text>
</g>
<!-- 22&#45;&gt;24 -->
<g id="edge24" class="edge">
<title>22-&gt;24</title>
<path fill="none" stroke="#000000" d="M510.0688,-94.3048C514.6709,-85.5437 519.574,-76.2096 524.1881,-67.4259"/>
<polygon fill="#000000" stroke="#000000" points="527.3151,-68.9992 528.867,-58.5186 521.118,-65.7439 527.3151,-68.9992"/>
</g>
<!-- 28 -->
<g id="node29" class="node">
<title>28</title>
<polygon fill="none" stroke="#000000" points="817.3045,-383.8014 719.2311,-383.8014 719.2311,-324.9986 817.3045,-324.9986 817.3045,-383.8014"/>
<text text-anchor="middle" x="768.2678" y="-367" font-family="Times,serif" font-size="14.00" fill="#000000">gini = 0.0</text>
<text text-anchor="middle" x="768.2678" y="-350.2" font-family="Times,serif" font-size="14.00" fill="#000000">samples = 29</text>
<text text-anchor="middle" x="768.2678" y="-333.4" font-family="Times,serif" font-size="14.00" fill="#000000">value = [0, 29]</text>
</g>
<!-- 27&#45;&gt;28 -->
<g id="edge28" class="edge">
<title>27-&gt;28</title>
<path fill="none" stroke="#000000" d="M771.575,-427.9528C771.0855,-417.0662 770.5498,-405.151 770.0547,-394.1411"/>
<polygon fill="#000000" stroke="#000000" points="773.5411,-393.7585 769.5954,-383.9258 766.5482,-394.073 773.5411,-393.7585"/>
</g>
<!-- 29 -->
<g id="node30" class="node">
<title>29</title>
<polygon fill="none" stroke="#000000" points="934.3045,-383.8014 836.2311,-383.8014 836.2311,-324.9986 934.3045,-324.9986 934.3045,-383.8014"/>
<text text-anchor="middle" x="885.2678" y="-367" font-family="Times,serif" font-size="14.00" fill="#000000">gini = 0.0</text>
<text text-anchor="middle" x="885.2678" y="-350.2" font-family="Times,serif" font-size="14.00" fill="#000000">samples = 13</text>
<text text-anchor="middle" x="885.2678" y="-333.4" font-family="Times,serif" font-size="14.00" fill="#000000">value = [13, 0]</text>
</g>
<!-- 27&#45;&gt;29 -->
<g id="edge29" class="edge">
<title>27-&gt;29</title>
<path fill="none" stroke="#000000" d="M811.1859,-427.9528C823.1681,-416.0561 836.3876,-402.931 848.3023,-391.1014"/>
<polygon fill="#000000" stroke="#000000" points="850.8992,-393.4553 855.5295,-383.9258 845.9672,-388.4878 850.8992,-393.4553"/>
</g>
</g>
</svg>